<svg xmlns="http://www.w3.org/2000/svg" width="60" height="60" viewBox="0 0 60 60">
  <metadata><?xpacket begin="﻿" id="W5M0MpCehiHzreSzNTczkc9d"?>
<x:xmpmeta xmlns:x="adobe:ns:meta/" x:xmptk="Adobe XMP Core 5.6-c140 79.160451, 2017/05/06-01:08:21        ">
   <rdf:RDF xmlns:rdf="http://www.w3.org/1999/02/22-rdf-syntax-ns#">
      <rdf:Description rdf:about=""/>
   </rdf:RDF>
</x:xmpmeta>
                                                                                                    
                                                                                                    
                                                                                                    
                                                                                                    
                                                                                                    
                                                                                                    
                                                                                                    
                                                                                                    
                                                                                                    
                                                                                                    
                                                                                                    
                                                                                                    
                                                                                                    
                                                                                                    
                                                                                                    
                                                                                                    
                                                                                                    
                                                                                                    
                                                                                                    
                                                                                                    
                           
<?xpacket end="w"?></metadata>
<defs>
    <style>
      .cls-1 {
        fill: #3159a5;
        fill-rule: evenodd;
        opacity: 0.15;
      }
    </style>
  </defs>
  <path id="Forma_1" data-name="Forma 1" class="cls-1" d="M583,2185.88a2,2,0,1,1-2,2A2,2,0,0,1,583,2185.88Zm0-27.88a30,30,0,1,0,30,30A30.035,30.035,0,0,0,583,2158Zm-1,7.88a1,1,0,0,1,2,0v1a1,1,0,0,1-2,0v-1Zm-20,23h-1a1,1,0,0,1,0-2h1A1,1,0,0,1,562,2188.88Zm6.858,14.55-0.707.71a1.007,1.007,0,0,1-1.414,0,0.994,0.994,0,0,1,0-1.41l0.707-.71A1,1,0,0,1,568.858,2203.43Zm0-29.7a0.983,0.983,0,0,1-1.414,0l-0.707-.7a1,1,0,0,1,1.414-1.42l0.707,0.71A0.994,0.994,0,0,1,568.858,2173.73ZM584,2209.88a1,1,0,0,1-2,0v-1a1,1,0,0,1,2,0v1Zm-1-18a4,4,0,0,1-3.858-3H572a1,1,0,0,1,0-2h7.142a3.989,3.989,0,0,1,2.858-2.86v-10.14a1,1,0,0,1,2,0v10.14A3.993,3.993,0,0,1,583,2191.88Zm16.263,12.26a1.007,1.007,0,0,1-1.414,0l-0.707-.71a1,1,0,0,1,1.414-1.41l0.707,0.71A0.994,0.994,0,0,1,599.263,2204.14Zm0-31.11-0.707.7a0.983,0.983,0,0,1-1.414,0,0.994,0.994,0,0,1,0-1.41l0.707-.71A1,1,0,0,1,599.263,2173.03ZM605,2188.88h-1a1,1,0,0,1,0-2h1A1,1,0,0,1,605,2188.88Z" transform="translate(-553 -2158)"/>
</svg>
