<svg xmlns="http://www.w3.org/2000/svg" width="22" height="17" viewBox="0 0 22 17">
  <metadata><?xpacket begin="﻿" id="W5M0MpCehiHzreSzNTczkc9d"?>
<x:xmpmeta xmlns:x="adobe:ns:meta/" x:xmptk="Adobe XMP Core 5.6-c140 79.160451, 2017/05/06-01:08:21        ">
   <rdf:RDF xmlns:rdf="http://www.w3.org/1999/02/22-rdf-syntax-ns#">
      <rdf:Description rdf:about=""/>
   </rdf:RDF>
</x:xmpmeta>
                                                                                                    
                                                                                                    
                                                                                                    
                                                                                                    
                                                                                                    
                                                                                                    
                                                                                                    
                                                                                                    
                                                                                                    
                                                                                                    
                                                                                                    
                                                                                                    
                                                                                                    
                                                                                                    
                                                                                                    
                                                                                                    
                                                                                                    
                                                                                                    
                                                                                                    
                                                                                                    
                           
<?xpacket end="w"?></metadata>
<defs>
    <style>
      .cls-1 {
        fill: #b6b6b6;
        fill-rule: evenodd;
      }
    </style>
  </defs>
  <path id="Forma_1" data-name="Forma 1" class="cls-1" d="M685.983,678.538a7.79,7.79,0,0,0,3.149-2.252,4.746,4.746,0,0,0,0-6.2,7.789,7.789,0,0,0-3.148-2.252,11.8,11.8,0,0,0-8.68,0,7.793,7.793,0,0,0-3.149,2.252,4.829,4.829,0,0,0-1.154,3.1,4.7,4.7,0,0,0,.872,2.705,7.134,7.134,0,0,0,2.394,2.136q-0.123.291-.252,0.532a3.036,3.036,0,0,1-.307.465c-0.118.149-.21,0.265-0.276,0.35a4.754,4.754,0,0,1-.319.355c-0.148.154-.242,0.254-0.283,0.3a0.108,0.108,0,0,0-.049.055,0.152,0.152,0,0,1-.055.06,0.13,0.13,0,0,0-.049.06c-0.029.044-.043,0.067-0.043,0.067l-0.031.06a0.254,0.254,0,0,0-.024.072,0.394,0.394,0,0,0-.007.079,0.22,0.22,0,0,0,.013.078,0.4,0.4,0,0,0,.141.254,0.388,0.388,0,0,0,.252.1h0.036a9.9,9.9,0,0,0,4.469-1.739,12.521,12.521,0,0,0,2.161.194A11.229,11.229,0,0,0,685.983,678.538Zm8.145,0.447a4.649,4.649,0,0,0-.049-5.488,7.237,7.237,0,0,0-2.5-2.149,6.113,6.113,0,0,1-.54,4.9,8.125,8.125,0,0,1-2.357,2.559,10.965,10.965,0,0,1-3.241,1.558,13.178,13.178,0,0,1-3.794.543q-0.368,0-1.08-.048a10.449,10.449,0,0,0,5.795,1.594,12.521,12.521,0,0,0,2.161-.194,10.385,10.385,0,0,0,3.412,1.546,10.546,10.546,0,0,0,1.056.193,0.371,0.371,0,0,0,.27-0.085,0.444,0.444,0,0,0,.16-0.265,0.083,0.083,0,0,1,.012-0.078c0.012,0,.01-0.031-0.006-0.079l-0.024-.072-0.031-.06a0.57,0.57,0,0,0-.043-0.067,0.5,0.5,0,0,0-.049-0.06c-0.012-.012-0.03-0.032-0.055-0.06s-0.041-.047-0.049-0.055c-0.041-.048-0.135-0.149-0.283-0.3s-0.253-.272-0.319-0.357-0.157-.2-0.276-0.35a2.942,2.942,0,0,1-.307-0.465q-0.129-.24-0.251-0.531A7.17,7.17,0,0,0,694.128,678.985Z" transform="translate(-673 -667)"/>
</svg>
