<svg xmlns="http://www.w3.org/2000/svg" width="25" height="23" viewBox="0 0 25 23">
  <metadata><?xpacket begin="﻿" id="W5M0MpCehiHzreSzNTczkc9d"?>
<x:xmpmeta xmlns:x="adobe:ns:meta/" x:xmptk="Adobe XMP Core 5.6-c140 79.160451, 2017/05/06-01:08:21        ">
   <rdf:RDF xmlns:rdf="http://www.w3.org/1999/02/22-rdf-syntax-ns#">
      <rdf:Description rdf:about=""/>
   </rdf:RDF>
</x:xmpmeta>
                                                                                                    
                                                                                                    
                                                                                                    
                                                                                                    
                                                                                                    
                                                                                                    
                                                                                                    
                                                                                                    
                                                                                                    
                                                                                                    
                                                                                                    
                                                                                                    
                                                                                                    
                                                                                                    
                                                                                                    
                                                                                                    
                                                                                                    
                                                                                                    
                                                                                                    
                                                                                                    
                           
<?xpacket end="w"?></metadata>
<defs>
    <style>
      .cls-1 {
        fill: #b6b6b6;
        fill-rule: evenodd;
      }
    </style>
  </defs>
  <path id="Shape_1_копия" data-name="Shape 1 копия" class="cls-1" d="M806.081,2945.65h-3.265a0.8,0.8,0,0,1-.816-0.78v-14.09a0.8,0.8,0,0,1,.816-0.78h3.265a0.8,0.8,0,0,1,.816.78v14.09A0.8,0.8,0,0,1,806.081,2945.65Zm18.881,0c-0.131.03-6.286,0-6.286,0l0.86,2.25c0.593,1.56.209,3.93-1.437,4.77a2.868,2.868,0,0,1-1.888.27,1.327,1.327,0,0,1-.832-0.6,3.109,3.109,0,0,1-.261-1.11,4.75,4.75,0,0,0-1.385-2.54c-1.267-1.18-5.2-4.6-5.2-4.6v-12.53h13.6a2.379,2.379,0,0,1,2.133,3.51,7596443170108.893,7596443170108.893,0,0,1,1.632,6.26A2.354,2.354,0,0,1,824.962,2945.65Z" transform="translate(-802 -2930)"/>
</svg>
