<svg xmlns="http://www.w3.org/2000/svg" width="25" height="23" viewBox="0 0 25 23">
  <metadata><?xpacket begin="﻿" id="W5M0MpCehiHzreSzNTczkc9d"?>
<x:xmpmeta xmlns:x="adobe:ns:meta/" x:xmptk="Adobe XMP Core 5.6-c140 79.160451, 2017/05/06-01:08:21        ">
   <rdf:RDF xmlns:rdf="http://www.w3.org/1999/02/22-rdf-syntax-ns#">
      <rdf:Description rdf:about=""/>
   </rdf:RDF>
</x:xmpmeta>
                                                                                                    
                                                                                                    
                                                                                                    
                                                                                                    
                                                                                                    
                                                                                                    
                                                                                                    
                                                                                                    
                                                                                                    
                                                                                                    
                                                                                                    
                                                                                                    
                                                                                                    
                                                                                                    
                                                                                                    
                                                                                                    
                                                                                                    
                                                                                                    
                                                                                                    
                                                                                                    
                           
<?xpacket end="w"?></metadata>
<defs>
    <style>
      .cls-1 {
        fill: #15489e;
        fill-rule: evenodd;
      }
    </style>
  </defs>
  <path class="cls-1" d="M715.081,2930.34h-3.265a0.8,0.8,0,0,0-.816.79v14.09a0.8,0.8,0,0,0,.816.78h3.265a0.8,0.8,0,0,0,.816-0.78v-14.09A0.8,0.8,0,0,0,715.081,2930.34Zm18.881,0c-0.131-.02-6.286,0-6.286,0l0.86-2.25c0.593-1.55.209-3.92-1.437-4.76a2.867,2.867,0,0,0-1.888-.27,1.327,1.327,0,0,0-.832.6,3.109,3.109,0,0,0-.261,1.11,4.722,4.722,0,0,1-1.385,2.53c-1.267,1.19-5.2,4.61-5.2,4.61v12.52h13.6a2.371,2.371,0,0,0,2.133-3.5,7596443170023.153,7596443170023.153,0,0,0,1.632-6.26A2.362,2.362,0,0,0,733.962,2930.34Z" transform="translate(-711 -2923)"/>
</svg>
