<svg xmlns="http://www.w3.org/2000/svg" width="241" height="199" viewBox="0 0 241 199">
  <metadata><?xpacket begin="﻿" id="W5M0MpCehiHzreSzNTczkc9d"?>
<x:xmpmeta xmlns:x="adobe:ns:meta/" x:xmptk="Adobe XMP Core 5.6-c140 79.160451, 2017/05/06-01:08:21        ">
   <rdf:RDF xmlns:rdf="http://www.w3.org/1999/02/22-rdf-syntax-ns#">
      <rdf:Description rdf:about=""/>
   </rdf:RDF>
</x:xmpmeta>
                                                                                                    
                                                                                                    
                                                                                                    
                                                                                                    
                                                                                                    
                                                                                                    
                                                                                                    
                                                                                                    
                                                                                                    
                                                                                                    
                                                                                                    
                                                                                                    
                                                                                                    
                                                                                                    
                                                                                                    
                                                                                                    
                                                                                                    
                                                                                                    
                                                                                                    
                                                                                                    
                           
<?xpacket end="w"?></metadata>
<defs>
    <style>
      .cls-1 {
        fill: #ebf6fd;
        fill-rule: evenodd;
      }
    </style>
  </defs>
  <path id="Forma_1" data-name="Forma 1" class="cls-1" d="M1581.83,428.349c40.62,0.4,66.05-2.133,69.49,43.005h49.52c0-69.928-60.82-79.353-120.29-79.353-59.49,0-120.29,9.425-120.29,79.353h49.13C1513.19,425.351,1541.57,427.949,1581.83,428.349Zm-97.02,65.482c12.07,0,22.1.723,24.33-11.174a30.417,30.417,0,0,0,.48-5.571h-49.6C1460.02,494.791,1471.12,493.831,1484.81,493.831Zm166.83-16.745h-0.47a26.765,26.765,0,0,0,.53,5.571c2.35,10.972,12.37,10.29,24.39,10.29,13.77,0,24.92.907,24.92-15.861h-49.37Zm-24.2-12.054V458c0-3.144-3.61-3.342-8.07-3.342h-7.29c-4.46,0-8.07.2-8.07,3.342V468.76h-51.56V458c0-3.144-3.62-3.342-8.08-3.342h-7.29c-4.46,0-8.07.2-8.07,3.342v13.174c-11.75,12.241-50.19,64.353-51.58,70.665l0.02,42.1a7.046,7.046,0,0,0,7.03,7.051h187.5a7.053,7.053,0,0,0,7.03-7.051v-42.31c-1.39-6.124-39.82-58.213-51.57-70.454v-6.141ZM1549.9,547.5a6.854,6.854,0,1,1,6.84-6.854A6.842,6.842,0,0,1,1549.9,547.5Zm0-23.5a6.854,6.854,0,1,1,6.84-6.854A6.842,6.842,0,0,1,1549.9,524Zm0-23.505a6.855,6.855,0,1,1,6.84-6.855A6.843,6.843,0,0,1,1549.9,500.493Zm28.13,47.01a6.854,6.854,0,1,1,6.83-6.854A6.842,6.842,0,0,1,1578.03,547.5Zm0-23.5a6.854,6.854,0,1,1,6.83-6.854A6.842,6.842,0,0,1,1578.03,524Zm0-23.505a6.855,6.855,0,1,1,6.83-6.855A6.843,6.843,0,0,1,1578.03,500.493Zm28.12,47.01a6.854,6.854,0,1,1,6.84-6.854A6.842,6.842,0,0,1,1606.15,547.5Zm0-23.5a6.854,6.854,0,1,1,6.84-6.854A6.842,6.842,0,0,1,1606.15,524Zm0-23.505a6.855,6.855,0,1,1,6.84-6.855A6.843,6.843,0,0,1,1606.15,500.493Z" transform="translate(-1460 -392)"/>
</svg>
