<svg xmlns="http://www.w3.org/2000/svg" width="15" height="15" viewBox="0 0 15 15">
  <metadata><?xpacket begin="﻿" id="W5M0MpCehiHzreSzNTczkc9d"?>
<x:xmpmeta xmlns:x="adobe:ns:meta/" x:xmptk="Adobe XMP Core 5.6-c140 79.160451, 2017/05/06-01:08:21        ">
   <rdf:RDF xmlns:rdf="http://www.w3.org/1999/02/22-rdf-syntax-ns#">
      <rdf:Description rdf:about=""/>
   </rdf:RDF>
</x:xmpmeta>
                                                                                                    
                                                                                                    
                                                                                                    
                                                                                                    
                                                                                                    
                                                                                                    
                                                                                                    
                                                                                                    
                                                                                                    
                                                                                                    
                                                                                                    
                                                                                                    
                                                                                                    
                                                                                                    
                                                                                                    
                                                                                                    
                                                                                                    
                                                                                                    
                                                                                                    
                                                                                                    
                           
<?xpacket end="w"?></metadata>
<defs>
    <style>
      .cls-1 {
        fill: #15489e;
        fill-rule: evenodd;
        opacity: 0.42;
      }
    </style>
  </defs>
  <path id="Forma_1" data-name="Forma 1" class="cls-1" d="M367.661,10107.9l-2.315-2.4a1.248,1.248,0,0,0-1.7.1l-1.167,1.1a0.249,0.249,0,0,1-.23-0.1,13.018,13.018,0,0,1-2.806-2,11.388,11.388,0,0,1-2.034-2.9,0.327,0.327,0,0,1-.125-0.2l0.783-.8,0.385-.4a1.2,1.2,0,0,0,.031-1.7l-2.316-2.3a1.243,1.243,0,0,0-1.7,0l-0.652.7h0.018a3.587,3.587,0,0,0-.538,1,3.341,3.341,0,0,0-.24.9c-0.3,2.6.853,4.9,4,8.1,4.346,4.3,7.848,4,8,4a3.271,3.271,0,0,0,.965-0.2c0.344-.2.666-0.4,0.945-0.6h0.014l0.662-.6A1.2,1.2,0,0,0,367.661,10107.9Z" transform="translate(-353 -10096)"/>
</svg>
